<svg width="230" height="230" viewBox="0 0 230 230" fill="none" xmlns="http://www.w3.org/2000/svg">
<mask id="mask0_0_1" style="mask-type:alpha" maskUnits="userSpaceOnUse" x="40" y="40" width="150" height="150">
<circle cx="115" cy="115" r="75" fill="#D9D9D9"/>
</mask>
<g mask="url(#mask0_0_1)">
<path d="M117.133 67.8926C113.46 71.2712 108.907 77.5876 109.2 88.0171C109.2 88.0171 141.664 67.3051 127.415 64.8079C123.743 64.0734 119.924 65.3954 117.133 67.8926Z" fill="#1B1C1E"/>
<path d="M162.376 138.255C162.376 138.255 158.997 166.164 186.173 173.803C213.348 181.441 321.021 169.396 356.422 167.193C385.507 165.283 402.988 181.588 401.372 209.939C400.637 224.481 400.784 234.911 401.519 242.255C402.694 255.476 413.123 284.12 417.824 292.787C420.174 297.194 419.293 302.482 415.914 306.007L414.298 307.476C411.801 309.826 408.129 310.267 405.191 308.357C397.699 303.363 382.863 290.436 366.411 259.442C366.117 258.854 365.677 258.12 365.383 257.385C362.298 251.51 359.507 248.719 359.507 248.719C359.507 248.719 351.134 244.899 331.304 244.606C315.88 244.459 293.699 246.368 262.998 254.007C215.845 265.758 168.839 266.199 158.704 260.47C158.704 260.47 151.653 276.628 151.653 308.357C151.653 311.148 149.449 313.352 146.658 313.499L139.607 313.792C137.404 313.939 135.348 312.617 134.319 310.708C133.732 309.533 132.997 307.917 132.116 306.007C128.884 298.809 124.331 286.764 120.071 269.137C118.014 260.47 116.104 250.481 114.342 239.171C114.195 238.142 114.048 237.261 113.901 236.233C107.144 185.554 113.313 138.989 113.313 138.989C113.313 138.989 59.2566 157.057 46.4769 119.305C45.1549 115.486 47.7989 111.373 51.7651 111.079C52.3526 111.079 53.0871 111.079 53.8216 111.079C63.3697 111.373 90.9857 113.136 101.562 92.8645C109.347 78.1752 122.421 60.9886 138.873 63.192C139.607 63.3389 140.195 63.3389 140.929 63.4858C141.517 63.6327 161.935 89.6329 162.376 138.255Z" fill="#D29F7E"/>
<path d="M141.517 63.6327C141.517 63.6327 137.11 63.6327 139.167 73.6215C140.783 81.9944 143.72 90.808 138.579 114.164C132.703 140.752 146.218 146.921 161.201 140.311C176.331 133.701 173.687 119.012 170.749 104.763C167.811 90.5142 155.031 62.3107 141.517 63.6327Z" fill="#1B1C1E"/>
<path d="M45.0079 115.192C44.8611 112.842 46.7707 110.786 49.121 110.639C52.4995 110.492 57.7877 110.345 60.5787 110.051C64.8386 109.61 66.8951 115.78 60.7256 122.684C54.556 129.588 48.3865 126.503 45.8893 119.012C45.3017 117.543 45.1548 116.367 45.0079 115.192Z" fill="#1B1C1E"/>
<path d="M89.2229 143.396C89.2229 143.396 103.325 143.102 104.794 124.006" stroke="#1B1C1E" stroke-width="1.2604" stroke-linecap="round" stroke-linejoin="round"/>
<path d="M102.15 123.125C102.15 123.125 104.647 125.034 107.291 124.3" stroke="#1B1C1E" stroke-width="1.2604" stroke-miterlimit="10" stroke-linecap="round" stroke-linejoin="round"/>
<path d="M113.167 105.057C112.873 107.113 111.257 108.729 109.788 108.435C108.319 108.141 107.585 106.379 107.878 104.175C108.172 102.119 109.641 100.503 111.11 100.797C112.579 101.091 113.46 103 113.167 105.057Z" fill="#1B1C1E"/>
<path d="M165.314 156.469C156.794 160.729 148.421 163.227 141.223 164.695C128.884 167.193 120.071 166.605 120.071 166.605C121.393 164.989 122.274 162.786 122.421 160.289C122.421 158.967 122.274 157.791 121.833 156.616C121.833 156.616 146.658 154.854 162.523 147.509C163.11 150.153 163.992 153.238 165.314 156.469Z" fill="#D1493B"/>
<path d="M123.449 161.464C123.302 167.193 119.336 171.599 114.782 171.453C113.167 171.453 111.698 170.718 110.376 169.837C108.025 167.927 106.556 164.695 106.703 161.023C106.85 155.294 110.816 150.887 115.37 151.034C118.161 151.181 120.511 152.797 121.98 155.441C123.008 157.057 123.596 159.26 123.449 161.464Z" fill="#FFAE1F"/>
<path d="M122.127 155.294C123.155 157.057 123.596 159.114 123.596 161.464C123.449 167.193 119.483 171.6 114.929 171.453C113.313 171.453 111.845 170.718 110.522 169.837" stroke="#1B1C1E" stroke-width="1.2604" stroke-miterlimit="10" stroke-linecap="round" stroke-linejoin="round"/>
<mask id="mask1_0_1" style="mask-type:luminance" maskUnits="userSpaceOnUse" x="112" y="125" width="20" height="26">
<path d="M126.24 147.362C118.895 153.678 112.579 149.272 112.579 149.272C113.167 142.808 113.607 139.136 113.607 139.136C113.607 139.136 120.658 137.373 127.268 130.322L130.941 125.328C131.088 125.328 133.585 141.046 126.24 147.362Z" fill="white"/>
</mask>
<g mask="url(#mask1_0_1)">
<g opacity="0.88">
<path d="M120.805 136.051C120.805 136.198 120.805 136.198 120.952 136.345C120.952 136.345 120.952 136.198 120.805 136.051Z" fill="#322015"/>
<path d="M125.359 132.232L125.065 131.938C125.065 132.085 125.212 132.232 125.359 132.232Z" fill="#322015"/>
<path d="M121.833 138.108C121.833 138.255 121.833 138.402 121.98 138.548L121.833 138.108Z" fill="#322015"/>
<path d="M115.223 143.69L115.37 143.984C115.37 143.984 115.37 143.837 115.223 143.69Z" fill="#322015"/>
<path d="M116.104 137.814C116.104 137.961 116.104 137.961 116.251 138.108C116.104 137.961 116.251 137.814 116.104 137.814Z" fill="#322015"/>
<path d="M126.533 130.322V130.175C126.387 130.175 126.387 130.322 126.533 130.322Z" fill="#322015"/>
<path d="M117.72 138.108C118.308 138.989 117.573 138.255 118.014 138.989C118.014 138.695 118.014 138.548 118.308 138.989C118.455 139.43 118.014 138.989 118.455 139.724V139.43C118.749 139.724 118.895 140.311 119.042 140.311C118.602 139.283 119.777 140.458 119.777 140.164V140.311L120.217 140.605C120.217 140.605 120.217 140.458 120.071 140.458C120.511 140.899 120.805 141.046 120.952 140.899C120.658 140.311 121.393 140.311 121.246 139.87C121.246 140.017 121.246 140.164 120.952 140.017L120.511 139.43C120.658 139.283 120.952 140.017 120.805 139.577C120.217 138.695 120.511 139.724 120.364 139.724C120.217 139.43 120.217 139.283 120.217 139.136C119.924 139.283 119.483 139.136 119.924 140.017C119.777 139.87 119.483 139.43 119.483 139.43C119.63 140.017 119.042 138.989 119.189 139.577C118.749 138.695 119.189 138.989 119.042 138.401C119.63 138.842 119.483 138.108 119.63 137.814C120.071 138.402 120.217 138.989 120.511 139.283C120.952 139.43 120.511 138.842 120.364 138.401C120.658 138.548 121.099 139.283 121.393 139.136L121.54 139.577C122.274 140.311 121.393 139.136 121.686 139.283C121.539 139.136 121.393 138.842 121.246 138.989C120.952 138.695 120.952 138.548 121.099 138.401C120.805 137.961 120.511 137.52 120.805 137.667C121.099 138.255 121.246 137.961 121.393 138.108V138.255C121.393 137.961 121.54 137.961 121.54 137.814L121.686 137.961C121.686 137.667 121.246 137.079 121.393 137.079C121.54 137.373 121.98 138.108 121.98 137.814C122.274 138.108 122.127 138.402 121.833 138.255C122.127 138.255 122.568 138.842 122.421 138.989C122.862 139.43 122.421 138.695 122.715 138.842C122.568 138.695 122.421 138.548 122.421 138.401C122.862 138.989 122.715 138.255 122.421 137.814L122.568 138.255C122.127 137.814 122.127 137.373 121.833 137.079C122.568 137.814 121.98 136.345 122.568 136.933L122.127 136.639C122.568 136.639 122.127 135.611 122.127 135.17C122.274 135.464 123.008 136.198 122.568 136.198C123.008 136.051 123.449 136.933 123.89 137.226C124.33 137.226 123.302 136.345 123.155 136.051V136.345C122.421 135.317 123.89 136.051 123.596 135.17C123.89 135.317 123.743 135.317 123.743 135.464C124.33 135.757 123.743 135.317 123.596 135.023C123.743 135.023 124.184 135.023 124.624 135.611C124.918 135.611 124.33 135.317 124.184 135.023L124.33 135.17L123.89 134.435C124.184 134.435 124.624 134.582 125.212 135.023C125.359 134.582 124.037 133.848 123.89 133.407C124.33 133.554 124.33 133.848 124.477 133.995L124.624 133.701C125.212 134.288 124.771 134.288 125.506 134.876C124.918 133.995 125.506 134.435 125.212 133.848H125.065C124.624 133.26 125.212 133.407 125.212 133.113C125.506 133.407 125.359 133.554 125.506 133.848C125.946 133.848 125.946 133.26 125.359 132.673C125.506 132.673 125.946 132.673 126.093 132.966C126.387 132.673 125.212 132.085 125.506 131.938L126.093 132.379C127.121 132.673 125.799 131.204 126.681 131.497L125.946 131.057C126.24 131.204 126.534 131.204 126.828 131.351L126.975 131.644C127.709 131.938 126.534 131.204 126.975 131.204C126.828 131.057 126.24 130.91 125.946 130.763C125.946 131.644 124.477 131.498 124.771 132.673C124.918 132.673 124.918 132.82 125.065 132.82C124.918 132.82 124.918 132.966 124.624 132.673C124.624 132.966 123.743 132.379 123.743 132.526C124.184 132.966 123.302 132.673 124.184 133.26L123.596 132.966C123.89 133.26 124.184 133.554 124.33 133.701C124.184 133.701 123.89 133.554 123.743 133.26C123.155 133.407 122.862 133.995 122.715 134.582L122.421 134.142C122.127 134.142 122.715 135.023 121.98 134.142C122.127 134.582 121.246 134.435 122.127 135.17C121.246 134.435 121.393 135.17 121.246 135.611C121.98 136.345 121.246 136.051 121.54 136.492C120.952 135.904 121.246 135.611 120.805 135.317C121.393 136.492 119.483 135.317 120.658 136.933C120.511 136.933 120.511 136.786 120.511 136.786C120.511 136.786 120.217 136.639 120.071 136.639C120.217 136.933 120.511 136.933 120.511 137.226C120.364 137.226 120.071 136.786 119.924 136.639C120.071 137.079 119.777 137.52 120.364 138.255C120.217 138.108 119.777 137.814 119.777 137.667C119.924 138.401 119.336 137.814 119.336 138.401C119.483 138.255 118.895 137.667 119.189 137.814C118.455 136.933 118.749 138.255 118.161 137.961L118.455 138.695C118.308 138.842 118.014 138.255 117.867 137.961C117.426 137.814 117.426 138.255 117.28 138.401C117.28 138.401 117.133 138.255 117.28 138.255L116.986 138.401C116.986 138.548 117.133 138.989 117.426 139.43C117.573 138.255 117.426 137.961 117.72 138.108Z" fill="#322015"/>
<path d="M122.421 139.283C122.274 139.136 122.127 139.136 122.127 139.136C122.274 139.136 122.274 139.283 122.421 139.283Z" fill="#322015"/>
<path d="M115.076 141.339C115.517 142.368 115.223 141.046 115.517 141.339C115.37 141.486 115.664 142.221 115.811 142.515C115.517 141.046 116.104 142.661 116.398 142.221C116.545 142.661 116.398 142.808 116.692 143.249C116.692 142.808 116.986 142.515 116.692 141.78C116.986 141.633 117.427 141.78 117.573 141.633C117.427 142.074 117.867 142.368 118.014 143.102C117.867 142.074 117.867 140.899 117.573 139.724C118.014 140.458 118.161 140.605 118.455 141.339C119.189 141.633 118.161 140.605 118.602 140.605H118.308C118.308 140.311 117.867 139.577 117.72 138.989L117.426 139.283C117.133 138.695 117.426 138.695 117.426 138.548C117.133 137.814 116.986 138.255 116.692 137.667C116.839 138.108 116.692 138.108 116.692 138.255L116.545 137.961C116.251 137.814 116.545 138.548 116.398 138.548C116.398 138.402 116.251 138.402 116.251 138.402C116.398 138.695 116.545 139.136 116.398 139.283C116.545 140.017 116.398 140.605 117.133 141.339H116.545C116.251 140.605 115.811 139.283 115.958 139.136L115.811 138.842C115.517 138.402 115.664 139.724 116.104 140.311C116.839 142.221 115.517 140.605 115.517 141.633C115.223 141.046 115.37 140.899 115.223 140.458C115.223 140.311 115.37 140.311 115.517 140.752C115.811 140.311 114.782 139.136 115.223 139.136C115.517 139.283 115.37 140.017 115.664 140.017L115.223 138.548C115.076 138.695 115.076 138.989 114.929 139.283C114.782 140.017 114.342 140.164 114.048 140.164C113.754 140.164 113.607 140.017 113.607 140.017C112.432 140.605 111.257 141.046 109.935 141.339C109.494 141.633 109.494 141.486 109.347 143.102C109.494 143.396 109.788 143.249 109.641 143.837C109.641 143.249 109.788 142.955 110.082 142.955C110.229 143.543 109.935 143.249 109.935 143.396C109.935 143.69 109.935 143.837 109.788 143.837C110.082 144.718 110.669 144.424 110.669 143.249C110.963 143.837 110.669 144.13 110.523 144.571C111.404 144.865 111.991 144.718 112.873 144.571C112.579 143.543 112.873 143.983 112.726 143.249L112.873 143.543C112.726 143.396 112.726 142.661 112.579 142.515C113.167 143.102 112.726 141.046 112.873 140.605L113.02 141.046C113.167 140.899 113.313 140.899 113.46 140.605C114.195 141.486 113.167 140.899 113.607 142.074V141.78C113.754 142.221 113.901 143.102 113.901 143.543C114.048 142.661 114.636 143.69 114.782 142.955C114.929 143.543 114.636 144.13 114.636 144.13C114.782 144.13 114.929 143.69 115.076 144.13L114.929 143.396C115.223 143.249 115.076 143.983 115.37 144.424C116.104 143.837 114.782 141.927 115.076 141.339Z" fill="#322015"/>
<path d="M120.659 138.842C120.511 138.842 120.511 138.842 120.659 138.842C120.511 138.99 120.511 138.842 120.659 138.842Z" fill="#322015"/>
<path d="M120.805 141.486C120.658 141.193 120.658 141.193 120.511 140.752C120.511 141.046 120.364 141.193 120.805 141.486Z" fill="#322015"/>
<path d="M131.381 125.915L131.234 125.769C131.234 125.769 131.381 125.769 131.381 125.915Z" fill="#322015"/>
<path d="M131.822 126.062L132.41 126.356L132.116 125.916L131.822 126.062C131.675 125.916 131.528 125.916 131.381 125.916L131.822 126.062Z" fill="#322015"/>
<path d="M130.206 126.209C130.5 126.209 130.794 126.503 131.088 126.65C131.381 126.503 130.5 126.062 130.794 126.062C131.234 126.503 131.234 126.062 131.675 126.209C131.088 126.062 130.647 125.916 130.353 126.062L130.794 126.209C130.647 126.503 130.5 126.209 130.206 126.209Z" fill="#322015"/>
<path d="M130.794 127.825L130.206 127.384C130.5 127.531 130.647 127.238 131.234 127.531C131.234 127.384 130.941 127.238 130.794 127.091C131.088 127.091 131.381 127.238 130.941 126.944C130.353 127.091 130.206 126.944 129.912 127.238C129.766 127.238 129.766 127.091 129.912 127.091H129.472C130.353 127.531 130.206 127.825 130.794 127.825Z" fill="#322015"/>
<path d="M130.206 127.972C130.206 127.825 129.766 127.385 129.325 127.238C129.472 127.385 129.472 127.678 129.619 127.825C129.619 127.825 129.619 127.531 130.206 127.972Z" fill="#322015"/>
<path d="M130.059 128.266C129.766 128.119 129.031 127.972 129.472 128.413C129.472 128.119 130.353 128.56 130.059 128.266Z" fill="#322015"/>
<path d="M128.737 129.147L129.325 129C130.059 129.294 129.472 129.294 129.766 129.588C130.059 129.441 129.766 129.294 129.472 128.853C129.619 128.853 129.178 128.413 129.031 128.266C129.472 129 127.562 128.119 128.737 129.147Z" fill="#322015"/>
<path d="M129.912 128.853L129.619 128.707L129.766 129L129.912 128.853Z" fill="#322015"/>
<path d="M127.562 129.441C126.534 129.147 127.856 130.175 127.415 130.175L127.268 130.029V130.322L127.121 130.175C127.709 130.469 127.709 130.763 128.15 131.204C128.884 131.351 127.562 130.763 128.297 130.91C128.443 131.057 128.884 131.351 129.031 131.497C128.884 131.204 128.59 131.057 128.297 130.763C128.297 130.616 128.59 130.763 128.737 130.91C128.444 130.616 127.709 130.029 128.003 130.029C128.59 130.175 128.737 130.616 128.59 130.175C127.709 129.735 128.884 130.029 128.444 129.588C128.737 129.441 129.325 129.735 129.619 129.882C128.884 129.441 128.443 129 128.297 128.853L128.737 129.441L127.856 129.147C127.856 129.294 127.709 129.441 127.562 129.441Z" fill="#322015"/>
<path d="M129.619 129.882V130.029H129.912L129.619 129.882Z" fill="#322015"/>
<path d="M129.178 131.791C129.178 131.791 129.031 131.644 128.884 131.644L129.178 131.791Z" fill="#322015"/>
<path d="M128.444 131.644L128.003 131.498L128.297 131.791L128.444 131.644Z" fill="#322015"/>
<path d="M125.212 135.317C125.506 135.464 125.065 135.023 124.771 134.729C124.477 134.729 125.065 135.023 125.212 135.317Z" fill="#322015"/>
<path d="M123.596 137.961C124.037 138.108 123.743 137.52 123.89 137.52C123.449 137.373 123.449 137.667 123.596 137.961Z" fill="#322015"/>
<path d="M123.89 140.458C123.743 140.311 123.743 140.164 123.596 140.164L123.008 139.136C122.568 139.136 123.596 140.164 123.89 140.458Z" fill="#322015"/>
<path d="M122.715 141.633V141.193H122.568C122.421 140.752 122.274 140.605 122.127 140.311C122.127 140.605 122.127 141.046 122.715 141.633Z" fill="#322015"/>
<path d="M122.127 140.017C122.273 140.31 122.273 140.164 122.127 140.017Z" fill="#322015"/>
<path d="M121.98 140.164C122.127 140.164 122.127 140.164 121.98 140.164C121.98 140.017 121.98 139.871 121.98 140.164Z" fill="#322015"/>
<path d="M122.127 141.339L121.833 141.633L122.127 141.78C121.833 141.192 122.568 141.927 122.127 141.339Z" fill="#322015"/>
<path d="M119.924 142.074L119.483 141.486C119.189 141.486 119.63 142.955 118.895 142.074C119.189 142.368 119.042 142.808 119.483 142.808C119.336 142.221 119.63 142.074 119.924 142.074Z" fill="#322015"/>
<path d="M118.455 141.78C118.455 141.633 118.308 141.486 118.161 141.339C118.014 141.339 118.161 141.633 118.308 141.927C118.014 141.046 118.749 142.221 118.455 141.78Z" fill="#322015"/>
<path d="M117.426 142.368C117.426 142.368 117.573 142.221 117.426 142.074C117.28 142.221 117.573 142.808 117.72 143.249C118.014 143.543 117.72 142.515 117.426 142.368Z" fill="#322015"/>
<path d="M113.901 138.548C114.048 139.136 114.195 138.989 114.195 138.695C114.195 138.842 114.048 138.695 113.901 138.548Z" fill="#322015"/>
<path d="M115.517 142.955H115.664L115.517 142.221V142.955Z" fill="#322015"/>
<path d="M114.342 143.837V144.424L114.636 144.277L114.342 143.837Z" fill="#322015"/>
<path d="M114.048 143.69L113.754 143.837L113.901 143.984C114.195 144.13 114.048 143.837 114.048 143.69Z" fill="#322015"/>
</g>
</g>
</g>
<rect x="40" y="4" width="73.0781" height="30" rx="3" fill="white"/>
<rect x="40.5" y="4.5" width="72.0781" height="29" rx="2.5" stroke="black" stroke-opacity="0.14902"/>
<path d="M46.9688 14H48.125L50.8438 20.6406H50.9375L53.6563 14H54.8125V22H53.9062V15.9219H53.8281L51.3281 22H50.4531L47.9531 15.9219H47.875V22H46.9688V14ZM58.3955 22.1406C58.0153 22.1406 57.6702 22.069 57.3604 21.9258C57.0505 21.7799 56.8044 21.5703 56.6221 21.2969C56.4398 21.0208 56.3486 20.6875 56.3486 20.2969C56.3486 19.9531 56.4163 19.6745 56.5518 19.4609C56.6872 19.2448 56.8682 19.0755 57.0947 18.9531C57.3213 18.8307 57.5713 18.7396 57.8447 18.6797C58.1208 18.6172 58.3981 18.5677 58.6768 18.5313C59.0413 18.4844 59.3369 18.4492 59.5635 18.4258C59.7926 18.3997 59.9593 18.3568 60.0635 18.2969C60.1702 18.237 60.2236 18.1328 60.2236 17.9844V17.9531C60.2236 17.5677 60.1182 17.2682 59.9072 17.0547C59.6989 16.8411 59.3825 16.7344 58.958 16.7344C58.5179 16.7344 58.1729 16.8307 57.9229 17.0234C57.6729 17.2161 57.4971 17.4219 57.3955 17.6406L56.5205 17.3281C56.6768 16.9635 56.8851 16.6797 57.1455 16.4766C57.4085 16.2708 57.695 16.1276 58.0049 16.0469C58.3174 15.9635 58.6247 15.9219 58.9268 15.9219C59.1195 15.9219 59.3408 15.9453 59.5908 15.9922C59.8434 16.0365 60.0869 16.1289 60.3213 16.2695C60.5583 16.4102 60.7549 16.6224 60.9111 16.9062C61.0674 17.1901 61.1455 17.5703 61.1455 18.0469V22H60.2236V21.1875H60.1768C60.1143 21.3177 60.0101 21.457 59.8643 21.6055C59.7184 21.7539 59.5244 21.8802 59.2822 21.9844C59.04 22.0885 58.7445 22.1406 58.3955 22.1406ZM58.5361 21.3125C58.9007 21.3125 59.208 21.2409 59.458 21.0977C59.7106 20.9544 59.9007 20.7695 60.0283 20.543C60.1585 20.3164 60.2236 20.0781 60.2236 19.8281V18.9844C60.1846 19.0312 60.0986 19.0742 59.9658 19.1133C59.8356 19.1497 59.6846 19.1823 59.5127 19.2109C59.3434 19.237 59.1781 19.2604 59.0166 19.2812C58.8577 19.2995 58.7288 19.3151 58.6299 19.3281C58.3903 19.3594 58.1663 19.4102 57.958 19.4805C57.7523 19.5482 57.5856 19.651 57.458 19.7891C57.333 19.9245 57.2705 20.1094 57.2705 20.3437C57.2705 20.6641 57.389 20.9062 57.626 21.0703C57.8656 21.2318 58.1689 21.3125 58.5361 21.3125ZM67.0781 17.3437L66.25 17.5781C66.1979 17.4401 66.1211 17.306 66.0195 17.1758C65.9206 17.043 65.7852 16.9336 65.6133 16.8477C65.4414 16.7617 65.2214 16.7187 64.9531 16.7187C64.5859 16.7187 64.2799 16.8034 64.0352 16.9727C63.793 17.1393 63.6719 17.3516 63.6719 17.6094C63.6719 17.8385 63.7552 18.0195 63.9219 18.1523C64.0885 18.2852 64.349 18.3958 64.7031 18.4844L65.5938 18.7031C66.1302 18.8333 66.5299 19.0326 66.793 19.3008C67.056 19.5664 67.1875 19.9089 67.1875 20.3281C67.1875 20.6719 67.0885 20.9792 66.8906 21.25C66.6953 21.5208 66.4219 21.7344 66.0703 21.8906C65.7188 22.0469 65.3099 22.125 64.8438 22.125C64.2318 22.125 63.7253 21.9922 63.3242 21.7266C62.9232 21.4609 62.6693 21.0729 62.5625 20.5625L63.4375 20.3437C63.5208 20.6667 63.6784 20.9089 63.9102 21.0703C64.1445 21.2318 64.4505 21.3125 64.8281 21.3125C65.2578 21.3125 65.599 21.2214 65.8516 21.0391C66.1068 20.8542 66.2344 20.6328 66.2344 20.375C66.2344 20.1667 66.1615 19.9922 66.0156 19.8516C65.8698 19.7083 65.6458 19.6016 65.3438 19.5312L64.3438 19.2969C63.7943 19.1667 63.3906 18.9648 63.1328 18.6914C62.8776 18.4154 62.75 18.0703 62.75 17.6562C62.75 17.3177 62.8451 17.0182 63.0352 16.7578C63.2279 16.4974 63.4896 16.293 63.8203 16.1445C64.1536 15.9961 64.5313 15.9219 64.9531 15.9219C65.5469 15.9219 66.013 16.0521 66.3516 16.3125C66.6927 16.5729 66.9349 16.9167 67.0781 17.3437ZM69.4346 19.8125L69.4189 18.6719H69.6064L72.2314 16H73.3721L70.5752 18.8281H70.4971L69.4346 19.8125ZM68.5752 22V14H69.4971V22H68.5752ZM72.3877 22L70.0439 19.0312L70.7002 18.3906L73.5596 22H72.3877ZM80.0742 24.375C79.6289 24.375 79.2461 24.3177 78.9258 24.2031C78.6055 24.0911 78.3385 23.9427 78.125 23.7578C77.9141 23.5755 77.7461 23.3802 77.6211 23.1719L78.3555 22.6563C78.4388 22.7656 78.5443 22.8906 78.6719 23.0312C78.7995 23.1745 78.974 23.2982 79.1953 23.4023C79.4193 23.5091 79.7122 23.5625 80.0742 23.5625C80.5586 23.5625 80.9583 23.4453 81.2734 23.2109C81.5885 22.9766 81.7461 22.6094 81.7461 22.1094V20.8906H81.668C81.6003 21 81.5039 21.1354 81.3789 21.2969C81.2565 21.4557 81.0794 21.5977 80.8477 21.7227C80.6185 21.8451 80.3086 21.9062 79.918 21.9062C79.4336 21.9062 78.9987 21.7917 78.6133 21.5625C78.2305 21.3333 77.9271 21 77.7031 20.5625C77.4818 20.125 77.3711 19.5937 77.3711 18.9687C77.3711 18.3542 77.4792 17.819 77.6953 17.3633C77.9115 16.9049 78.2122 16.5508 78.5977 16.3008C78.9831 16.0482 79.4284 15.9219 79.9336 15.9219C80.3242 15.9219 80.6341 15.987 80.8633 16.1172C81.0951 16.2448 81.2721 16.3906 81.3945 16.5547C81.5195 16.7161 81.6159 16.849 81.6836 16.9531H81.7773V16H82.668V22.1719C82.668 22.6875 82.5508 23.1068 82.3164 23.4297C82.0846 23.7552 81.7721 23.9935 81.3789 24.1445C80.9883 24.2982 80.5534 24.375 80.0742 24.375ZM80.043 21.0781C80.4128 21.0781 80.7253 20.9935 80.9805 20.8242C81.2357 20.6549 81.4297 20.4115 81.5625 20.0938C81.6953 19.776 81.7617 19.3958 81.7617 18.9531C81.7617 18.5208 81.6966 18.1393 81.5664 17.8086C81.4362 17.4779 81.2435 17.2187 80.9883 17.0312C80.7331 16.8437 80.418 16.75 80.043 16.75C79.6523 16.75 79.3268 16.849 79.0664 17.0469C78.8086 17.2448 78.6146 17.5104 78.4844 17.8438C78.3568 18.1771 78.293 18.5469 78.293 18.9531C78.293 19.3698 78.3581 19.7383 78.4883 20.0586C78.6211 20.3763 78.8164 20.6263 79.0742 20.8086C79.3346 20.9883 79.6576 21.0781 80.043 21.0781ZM84.3555 22V16H85.2461V16.9062H85.3086C85.418 16.6094 85.6159 16.3685 85.9023 16.1836C86.1888 15.9987 86.5117 15.9062 86.8711 15.9062C86.9388 15.9062 87.0234 15.9076 87.125 15.9102C87.2266 15.9128 87.3034 15.9167 87.3555 15.9219V16.8594C87.3242 16.8516 87.2526 16.8398 87.1406 16.8242C87.0313 16.806 86.9154 16.7969 86.793 16.7969C86.5013 16.7969 86.2409 16.8581 86.0117 16.9805C85.7852 17.1003 85.6055 17.2669 85.4727 17.4805C85.3424 17.6914 85.2773 17.9323 85.2773 18.2031V22H84.3555ZM90.7031 22.125C90.1615 22.125 89.6862 21.9961 89.2773 21.7383C88.8711 21.4805 88.5534 21.1198 88.3242 20.6562C88.0977 20.1927 87.9844 19.651 87.9844 19.0312C87.9844 18.4062 88.0977 17.8607 88.3242 17.3945C88.5534 16.9284 88.8711 16.5664 89.2773 16.3086C89.6862 16.0508 90.1615 15.9219 90.7031 15.9219C91.2448 15.9219 91.7188 16.0508 92.125 16.3086C92.5339 16.5664 92.8516 16.9284 93.0781 17.3945C93.3073 17.8607 93.4219 18.4062 93.4219 19.0312C93.4219 19.651 93.3073 20.1927 93.0781 20.6562C92.8516 21.1198 92.5339 21.4805 92.125 21.7383C91.7188 21.9961 91.2448 22.125 90.7031 22.125ZM90.7031 21.2969C91.1146 21.2969 91.4531 21.1914 91.7188 20.9805C91.9844 20.7695 92.181 20.4922 92.3086 20.1484C92.4362 19.8047 92.5 19.4323 92.5 19.0312C92.5 18.6302 92.4362 18.2565 92.3086 17.9102C92.181 17.5638 91.9844 17.2839 91.7188 17.0703C91.4531 16.8568 91.1146 16.75 90.7031 16.75C90.2917 16.75 89.9531 16.8568 89.6875 17.0703C89.4219 17.2839 89.2253 17.5638 89.0977 17.9102C88.9701 18.2565 88.9063 18.6302 88.9063 19.0312C88.9063 19.4323 88.9701 19.8047 89.0977 20.1484C89.2253 20.4922 89.4219 20.7695 89.6875 20.9805C89.9531 21.1914 90.2917 21.2969 90.7031 21.2969ZM98.6104 19.5469V16H99.5322V22H98.6104V20.9844H98.5479C98.4072 21.2891 98.1885 21.5482 97.8916 21.7617C97.5947 21.9727 97.2197 22.0781 96.7666 22.0781C96.3916 22.0781 96.0583 21.9961 95.7666 21.832C95.4749 21.6654 95.2458 21.4154 95.0791 21.082C94.9124 20.7461 94.8291 20.3229 94.8291 19.8125V16H95.751V19.75C95.751 20.1875 95.8734 20.5365 96.1182 20.7969C96.3656 21.0573 96.6807 21.1875 97.0635 21.1875C97.2926 21.1875 97.5257 21.1289 97.7627 21.0117C98.0023 20.8945 98.2028 20.7148 98.3643 20.4727C98.5283 20.2305 98.6104 19.9219 98.6104 19.5469ZM101.221 24.25V16H102.111V16.9531H102.221C102.288 16.849 102.382 16.7161 102.502 16.5547C102.624 16.3906 102.799 16.2448 103.025 16.1172C103.255 15.987 103.564 15.9219 103.955 15.9219C104.46 15.9219 104.906 16.0482 105.291 16.3008C105.676 16.5534 105.977 16.9115 106.193 17.375C106.41 17.8385 106.518 18.3854 106.518 19.0156C106.518 19.651 106.41 20.2018 106.193 20.668C105.977 21.1315 105.678 21.4909 105.295 21.7461C104.912 21.9987 104.471 22.125 103.971 22.125C103.585 22.125 103.277 22.0612 103.045 21.9336C102.813 21.8034 102.635 21.6562 102.51 21.4922C102.385 21.3255 102.288 21.1875 102.221 21.0781H102.143V24.25H101.221ZM102.127 19C102.127 19.4531 102.193 19.8529 102.326 20.1992C102.459 20.543 102.653 20.8125 102.908 21.0078C103.163 21.2005 103.476 21.2969 103.846 21.2969C104.231 21.2969 104.553 21.1953 104.811 20.9922C105.071 20.7865 105.266 20.5104 105.396 20.1641C105.529 19.8151 105.596 19.4271 105.596 19C105.596 18.5781 105.531 18.1979 105.4 17.8594C105.273 17.5182 105.079 17.2487 104.818 17.0508C104.561 16.8503 104.236 16.75 103.846 16.75C103.471 16.75 103.156 16.8451 102.9 17.0352C102.645 17.2227 102.452 17.4857 102.322 17.8242C102.192 18.1602 102.127 18.5521 102.127 19Z" fill="black"/>
</svg>
